<?xml version="1.0" encoding="UTF-8"?>
<!DOCTYPE svg PUBLIC "-//W3C//DTD SVG 1.1//EN" "http://www.w3.org/Graphics/SVG/1.1/DTD/svg11.dtd">
<svg version="1.1" xmlns="http://www.w3.org/2000/svg" xmlns:xlink="http://www.w3.org/1999/xlink" x="0px" y="0px" width="30" height="30" viewBox="0, 0, 30, 30">
  <g id="Layer 1">
    <path d="M28.793,6.444 C27.778,6.894 26.688,7.199 25.543,7.335 C26.711,6.635 27.609,5.526 28.031,4.204 C26.938,4.853 25.726,5.324 24.437,5.578 C23.405,4.478 21.934,3.79 20.306,3.79 C17.18,3.79 14.646,6.324 14.646,9.45 C14.646,9.894 14.696,10.326 14.793,10.74 C10.089,10.504 5.919,8.251 3.127,4.826 C2.64,5.662 2.361,6.634 2.361,7.672 C2.361,9.635 3.36,11.368 4.879,12.383 C3.951,12.353 3.078,12.099 2.315,11.675 C2.315,11.698 2.315,11.722 2.315,11.746 C2.315,14.488 4.266,16.775 6.855,17.295 C6.38,17.425 5.88,17.494 5.364,17.494 C4.999,17.494 4.644,17.459 4.299,17.392 C5.019,19.641 7.109,21.277 9.586,21.323 C7.649,22.841 5.208,23.746 2.557,23.746 C2.1,23.746 1.649,23.719 1.207,23.667 C3.711,25.272 6.686,26.21 9.882,26.21 C20.293,26.21 25.986,17.585 25.986,10.106 C25.986,9.861 25.98,9.617 25.969,9.374 C27.075,8.576 28.035,7.579 28.793,6.444 z" fill="#747474"/>
  </g>
  <g id="Layer 1 Copy">
    <path d="M28.793,5.444 C27.778,5.894 26.688,6.199 25.543,6.335 C26.711,5.635 27.609,4.526 28.031,3.204 C26.938,3.853 25.726,4.324 24.437,4.578 C23.405,3.478 21.934,2.79 20.306,2.79 C17.18,2.79 14.646,5.324 14.646,8.45 C14.646,8.894 14.696,9.326 14.793,9.74 C10.089,9.504 5.919,7.251 3.127,3.826 C2.64,4.662 2.361,5.634 2.361,6.672 C2.361,8.635 3.36,10.368 4.879,11.383 C3.951,11.353 3.078,11.099 2.315,10.675 C2.315,10.698 2.315,10.722 2.315,10.746 C2.315,13.488 4.266,15.775 6.855,16.295 C6.38,16.425 5.88,16.494 5.364,16.494 C4.999,16.494 4.644,16.459 4.299,16.392 C5.019,18.641 7.109,20.277 9.586,20.323 C7.649,21.841 5.208,22.746 2.557,22.746 C2.1,22.746 1.649,22.719 1.207,22.667 C3.711,24.272 6.686,25.21 9.882,25.21 C20.293,25.21 25.986,16.585 25.986,9.106 C25.986,8.861 25.98,8.617 25.969,8.374 C27.075,7.576 28.035,6.579 28.793,5.444 z" fill="#000000"/>
  </g>
  <defs/>
</svg>
